<svg width="32" height="36" viewBox="0 0 32 36" fill="none" xmlns="http://www.w3.org/2000/svg">
<path d="M16 0C11.7581 0.00442346 7.69131 1.49589 4.69182 4.14723C1.69232 6.79857 0.00500608 10.3933 1.76357e-06 14.1429C-0.0050788 17.207 1.12724 20.188 3.22327 22.6286C3.22327 22.6286 3.65963 23.1364 3.73091 23.2097L16 36L28.2749 23.2033C28.3389 23.1351 28.7767 22.6286 28.7767 22.6286L28.7782 22.6247C30.8731 20.1852 32.0049 17.2056 32 14.1429C31.995 10.3933 30.3076 6.79857 27.3082 4.14723C24.3087 1.49589 20.2419 0.00442346 16 0ZM16 19.2857C14.8493 19.2857 13.7244 18.9841 12.7676 18.419C11.8108 17.8539 11.0651 17.0507 10.6247 16.1109C10.1843 15.1712 10.0691 14.1372 10.2936 13.1395C10.5181 12.1419 11.0722 11.2255 11.8859 10.5063C12.6996 9.78707 13.7363 9.29726 14.8649 9.09882C15.9935 8.90038 17.1634 9.00223 18.2265 9.39148C19.2896 9.78073 20.1983 10.4399 20.8376 11.2856C21.4769 12.1314 21.8182 13.1257 21.8182 14.1429C21.8162 15.5063 21.2026 16.8134 20.1119 17.7775C19.0212 18.7416 17.5425 19.284 16 19.2857Z" fill="black"/>
</svg>
